<svg xmlns="http://www.w3.org/2000/svg" fill="none" stroke="currentColor" stroke-width="1.8" stroke-linecap="round" stroke-linejoin="round">
  <symbol id="miner" viewBox="0 0 24 24">
    <path d="m4 20 7-7m2-2 3-3m-9-4 13 13M5 3l4 1 11 11-4 4L5 8 3 5z"/>
  </symbol>
  <symbol id="inventory" viewBox="0 0 24 24">
    <path d="M5 7.5 12 4l7 3.5v9L12 20l-7-3.5zM5 7.5l7 3.5 7-3.5M12 11v9"/>
  </symbol>
  <symbol id="settings" viewBox="0 0 24 24">
    <circle cx="12" cy="12" r="3"/>
    <path d="M19 12a7 7 0 0 0-.1-1l2-1.5-2-3.4-2.4 1A8 8 0 0 0 15 6l-.3-2.6h-4L10.4 6a8 8 0 0 0-1.5.9l-2.4-1-2 3.5 2 1.5a7 7 0 0 0 0 2.2l-2 1.5 2 3.5 2.4-1a8 8 0 0 0 1.5.9l.3 2.6h4L15 18a8 8 0 0 0 1.5-.9l2.4 1 2-3.5-2-1.5a7 7 0 0 0 .1-1.1z"/>
  </symbol>
  <symbol id="list" viewBox="0 0 24 24">
    <path d="M9 6h11M9 12h11M9 18h11M4 6h.01M4 12h.01M4 18h.01"/>
  </symbol>
  <symbol id="check" viewBox="0 0 24 24">
    <path d="m5 12 4 4L19 6"/>
  </symbol>
  <symbol id="browser" viewBox="0 0 24 24">
    <rect x="3" y="4" width="18" height="16" rx="2"/>
    <path d="M3 9h18M7 6.5h.01M10 6.5h.01"/>
  </symbol>
  <symbol id="clock" viewBox="0 0 24 24">
    <circle cx="12" cy="12" r="9"/>
    <path d="M12 7v5l3 2"/>
  </symbol>
  <symbol id="cookie" viewBox="0 0 24 24">
    <path d="M20 13a8 8 0 1 1-9-9 4 4 0 0 0 5 5 4 4 0 0 0 4 4z"/>
    <circle cx="8.5" cy="13.5" r=".8"/><circle cx="12.5" cy="16.5" r=".8"/>
  </symbol>
  <symbol id="server" viewBox="0 0 24 24">
    <rect x="3" y="4" width="18" height="6" rx="2"/>
    <rect x="3" y="14" width="18" height="6" rx="2"/>
    <path d="M7 7h.01M7 17h.01M11 7h7M11 17h7"/>
  </symbol>
  <symbol id="terminal" viewBox="0 0 24 24">
    <rect x="3" y="4" width="18" height="16" rx="2"/>
    <path d="m7 9 3 3-3 3m6 0h4"/>
  </symbol>
  <symbol id="menu" viewBox="0 0 24 24">
    <path d="M4 7h16M4 12h16M4 17h16"/>
  </symbol>
  <symbol id="info" viewBox="0 0 24 24">
    <circle cx="12" cy="12" r="9"/>
    <path d="M12 11v5M12 8h.01"/>
  </symbol>
  <symbol id="download" viewBox="0 0 24 24">
    <path d="M12 3v12m-4-4 4 4 4-4M5 20h14"/>
  </symbol>
  <symbol id="trash" viewBox="0 0 24 24">
    <path d="M4 7h16M9 7V4h6v3m-9 0 1 13h10l1-13M10 11v5M14 11v5"/>
  </symbol>
  <symbol id="users" viewBox="0 0 24 24">
    <path d="M16 20v-2a4 4 0 0 0-4-4H6a4 4 0 0 0-4 4v2M9 10a4 4 0 1 0 0-8 4 4 0 0 0 0 8M22 20v-2a4 4 0 0 0-3-3.87M16 2.13a4 4 0 0 1 0 7.75"/>
  </symbol>
  <symbol id="user" viewBox="0 0 24 24">
    <circle cx="12" cy="8" r="4"/><path d="M4 21a8 8 0 0 1 16 0"/>
  </symbol>
  <symbol id="shield" viewBox="0 0 24 24">
    <path d="M12 22s8-4 8-10V5l-8-3-8 3v7c0 6 8 10 8 10z"/><path d="m9 12 2 2 4-4"/>
  </symbol>
  <symbol id="game" viewBox="0 0 24 24">
    <path d="M8 6h8a6 6 0 0 1 5.7 7.9l-1 3A2.5 2.5 0 0 1 16.5 18L14 15h-4l-2.5 3a2.5 2.5 0 0 1-4.2-1.1l-1-3A6 6 0 0 1 8 6zM7 11v4M5 13h4M16.5 11.5h.01M19 14h.01"/>
  </symbol>
  <symbol id="activity" viewBox="0 0 24 24">
    <path d="M3 12h4l2-7 4 14 2-7h6"/>
  </symbol>
  <symbol id="arrow-left" viewBox="0 0 24 24">
    <path d="m15 18-6-6 6-6"/>
  </symbol>
  <symbol id="chevron-right" viewBox="0 0 24 24">
    <path d="m9 18 6-6-6-6"/>
  </symbol>
  <symbol id="power" viewBox="0 0 24 24">
    <path d="M18.4 6.6a9 9 0 1 1-12.8 0M12 2v10"/>
  </symbol>
</svg>
